<?xml version="1.0" standalone="no"?>
<!DOCTYPE svg PUBLIC "-//W3C//DTD SVG 20010904//EN"
 "http://www.w3.org/TR/2001/REC-SVG-20010904/DTD/svg10.dtd">
<svg version="1.0" xmlns="http://www.w3.org/2000/svg"
 width="16.000000pt" height="16.000000pt" viewBox="0 0 16.000000 16.000000"
 preserveAspectRatio="xMidYMid meet">
<metadata>
Created by potrace 1.11, written by Peter Selinger 2001-2013
</metadata>
<g transform="translate(0.000000,16.000000) scale(0.001563,-0.001563)"
fill="#000000" stroke="none">
<path d="M2210 9499 c-98 -11 -151 -19 -195 -31 -22 -5 -51 -12 -64 -14 -113
-21 -374 -144 -503 -237 -336 -242 -573 -578 -662 -942 -20 -80 -43 -236 -46
-310 -7 -138 -3 -5648 3 -5733 4 -51 9 -97 11 -101 3 -4 7 -28 10 -53 18 -151
108 -385 208 -545 171 -273 428 -506 703 -637 79 -38 221 -91 266 -100 13 -2
44 -9 69 -15 163 -41 106 -40 3110 -40 1704 0 2899 4 2935 10 33 5 78 11 100
14 22 3 48 8 57 11 16 5 37 10 85 20 89 18 321 117 396 168 21 14 40 26 43 26
3 0 30 19 61 43 30 23 70 52 87 65 105 76 300 297 386 437 57 94 149 290 156
335 0 3 6 25 13 50 7 25 14 50 15 55 1 6 5 19 9 30 10 30 27 150 34 240 9 105
9 5598 0 5735 -7 114 -10 140 -32 245 -9 39 -15 72 -14 75 1 10 -70 198 -101
265 -167 357 -531 697 -895 835 -11 4 -32 12 -48 19 -54 22 -207 58 -282 67
-27 4 -72 10 -100 14 -63 10 -5727 9 -5815 -1z m1175 -1467 c107 -31 194 -106
244 -212 l26 -55 1 -955 1 -955 1462 0 1461 0 1 30 c0 16 1 439 1 940 1 975 0
951 52 1039 49 83 148 153 244 175 23 5 228 8 460 7 l417 -1 58 -28 c72 -33
110 -64 160 -129 76 -102 70 139 70 -2748 -1 -1422 -3 -2604 -6 -2627 -18
-135 -133 -263 -269 -299 -82 -21 -845 -20 -918 2 -104 31 -184 101 -234 204
l-31 65 -1 948 c0 521 -3 950 -7 953 -7 8 -2907 8 -2914 0 -3 -3 -7 -432 -8
-953 -2 -1012 0 -973 -51 -1053 -53 -84 -130 -142 -219 -165 -81 -21 -832 -22
-912 -1 -126 33 -220 126 -263 261 -11 32 -13 536 -13 2630 0 1425 3 2610 6
2634 13 96 101 217 191 263 23 12 42 21 43 21 1 0 24 5 50 12 75 19 831 17
898 -3z"/>
</g>
</svg>
